<?xml version="1.0" encoding="UTF-8"?>
<svg width="16px" height="16px" viewBox="0 0 16 16" version="1.1" xmlns="http://www.w3.org/2000/svg" xmlns:xlink="http://www.w3.org/1999/xlink">
    <!-- Generator: Sketch 59.1 (86144) - https://sketch.com -->
    <title>Cancelled Icon</title>
    <desc>Created with Sketch.</desc>
    <g id="Page-1" stroke="none" stroke-width="1" fill="none" fill-rule="evenodd">
        <g id="Asset-(Files)-V6-Copy" transform="translate(-742.000000, -1131.000000)" fill="#9D9D9D">
            <path d="M757.550707,1131.44929 C758.149764,1132.04835 758.149764,1133.01962 757.550707,1133.61867 L752.169,1139 L757.550707,1144.38133 C758.149764,1144.98038 758.149764,1145.95165 757.550707,1146.55071 C756.951649,1147.14976 755.980384,1147.14976 755.381326,1146.55071 L750,1141.169 L744.618674,1146.55071 C744.019616,1147.14976 743.048351,1147.14976 742.449293,1146.55071 C741.850236,1145.95165 741.850236,1144.98038 742.449293,1144.38133 L747.831,1139 L742.449293,1133.61867 C741.850236,1133.01962 741.850236,1132.04835 742.449293,1131.44929 C743.048351,1130.85024 744.019616,1130.85024 744.618674,1131.44929 L750,1136.831 L755.381326,1131.44929 C755.980384,1130.85024 756.951649,1130.85024 757.550707,1131.44929 Z" id="Cancelled-Icon"></path>
        </g>
    </g>
</svg>